# xmcd
#
# Track frame offsets:
#	150
#	30079
#	46293
#	65058
#	111107
#	134789
#	151785
#	176793
#	204616
#	238926
#	259975
#
# Disc length: 3761 seconds
#
# Revision: 1
# Processed by: cddbd v1.5.2PL0 Copyright (c) Steve Scherf et al.
# Submitted via: audiograbber 1.83.01
#
DISCID=9f0eaf0b
DTITLE=Oscar Peterson - Oscar Peterson and Stan Getz - Kind Of Peterson CD-6
DYEAR=1957
DGENRE=Jazz
TTITLE0=Oscar Peterson - Three Little Words (Ruby/Kalmar)
TTITLE1=Oscar Peterson - Detour Ahead (Carter/Ellis/Frigo)
TTITLE2=Oscar Peterson - I Was Doing All Right (Gershwin/Gershwin)
TTITLE3=Oscar Peterson - Ballad Medley: (Rodgers/Hart/Ahlert/Turk/Gershwin)
TTITLE4=Oscar Peterson - Pennies From Heaven (Johnston/Burke)
TTITLE5=Oscar Peterson - Blues For Henry (Horvath/Samlin)
TTITLE6=Oscar Peterson - Bronx Blues (Getz)
TTITLE7=Oscar Peterson - Sunday (Miller/Cohn/Styne/Krueger)
TTITLE8=Oscar Peterson - I Want To Be Happy (Youmans/Caesar)
TTITLE9=Oscar Peterson - I'm Glad There Is You (Dorsey/Mertz)
TTITLE10=Oscar Peterson - Tour's End (Getz)
EXTD=YEAR: 1957
EXTT0=
EXTT1=
EXTT2=
EXTT3=
EXTT4=
EXTT5=
EXTT6=
EXTT7=
EXTT8=
EXTT9=
EXTT10=
PLAYORDER=
